<?xml version="1.0" encoding="utf-8"?>
<!-- Generator: Adobe Illustrator 23.0.6, SVG Export Plug-In . SVG Version: 6.00 Build 0)  -->
<svg version="1.1" id="Lager_1" xmlns="http://www.w3.org/2000/svg" xmlns:xlink="http://www.w3.org/1999/xlink" x="0px" y="0px"
	 viewBox="0 0 66.09 57.09" style="enable-background:new 0 0 66.09 57.09;" xml:space="preserve">
<style type="text/css">
	.st0{fill:#FFFFFF;}
</style>
<polygon class="st0" points="35.43,0.05 35.43,41.37 41.58,41.37 41.58,23.84 51.75,23.84 51.75,18.04 41.58,18.04 41.58,5.84 
	53.25,5.84 53.25,0.05 "/>
<polygon class="st0" points="12.79,0 12.79,5.8 24.46,5.8 24.46,18.02 14.29,18.02 14.29,23.82 24.46,23.82 24.46,41.37 30.6,41.37 
	30.6,0 "/>
<polygon class="st0" points="0,47.4 0,57.01 1.6,57.01 1.6,53.01 3.91,53.01 3.91,51.5 1.6,51.5 1.6,48.92 4.25,48.92 4.25,47.4 "/>
<path class="st0" d="M9.43,47.91c-0.23-0.19-0.49-0.34-0.77-0.44c-0.56-0.2-1.14-0.2-1.7,0c-0.28,0.1-0.53,0.25-0.76,0.44
	c-0.23,0.2-0.42,0.46-0.56,0.76c-0.14,0.31-0.21,0.66-0.21,1.05v4.94c0,0.41,0.07,0.77,0.21,1.07c0.14,0.29,0.33,0.54,0.55,0.74
	c0.22,0.2,0.48,0.36,0.76,0.46c0.28,0.1,0.57,0.15,0.85,0.15c0.29,0,0.57-0.05,0.85-0.15c0.28-0.1,0.54-0.26,0.77-0.46
	c0.22-0.19,0.41-0.44,0.54-0.74c0.14-0.3,0.21-0.66,0.21-1.07v-4.94c0-0.39-0.07-0.75-0.21-1.05C9.84,48.38,9.66,48.12,9.43,47.91
	 M8.59,49.73v4.94c0,0.29-0.07,0.49-0.22,0.62c-0.16,0.13-0.34,0.2-0.55,0.2c-0.21,0-0.4-0.07-0.55-0.2
	c-0.15-0.13-0.22-0.33-0.22-0.62v-4.94c0-0.28,0.08-0.49,0.22-0.62c0.16-0.13,0.34-0.2,0.55-0.2c0.22,0,0.4,0.07,0.55,0.2
	C8.51,49.24,8.59,49.45,8.59,49.73"/>
<path class="st0" d="M15.68,47.91c-0.23-0.19-0.49-0.34-0.77-0.44c-0.56-0.2-1.14-0.2-1.7,0c-0.28,0.1-0.53,0.25-0.76,0.44
	c-0.23,0.2-0.42,0.46-0.56,0.76c-0.14,0.31-0.21,0.66-0.21,1.05v4.94c0,0.41,0.07,0.77,0.21,1.07c0.14,0.29,0.33,0.54,0.55,0.74
	c0.22,0.2,0.48,0.36,0.76,0.46c0.28,0.1,0.57,0.15,0.85,0.15c0.29,0,0.57-0.05,0.85-0.15c0.28-0.1,0.54-0.26,0.77-0.46
	c0.22-0.19,0.41-0.44,0.54-0.74c0.14-0.3,0.21-0.66,0.21-1.07v-4.94c0-0.39-0.07-0.75-0.21-1.05
	C16.09,48.38,15.91,48.12,15.68,47.91 M14.84,49.73v4.94c0,0.29-0.07,0.49-0.22,0.62c-0.16,0.13-0.34,0.2-0.55,0.2
	c-0.21,0-0.4-0.07-0.55-0.2c-0.15-0.13-0.22-0.33-0.22-0.62v-4.94c0-0.28,0.08-0.49,0.22-0.62c0.16-0.13,0.34-0.2,0.55-0.2
	c0.22,0,0.4,0.07,0.55,0.2C14.76,49.24,14.84,49.45,14.84,49.73"/>
<path class="st0" d="M20.13,47.4h-2.11v9.61h1.99c0.83,0,1.48-0.22,1.92-0.66c0.45-0.44,0.68-1.12,0.68-2.03v-4.37
	c0-0.8-0.21-1.43-0.63-1.88C21.55,47.62,20.93,47.4,20.13,47.4 M21.01,54.45c0,0.37-0.07,0.64-0.21,0.8
	c-0.13,0.16-0.37,0.24-0.7,0.24h-0.49v-6.57h0.49c0.35,0,0.59,0.08,0.71,0.25c0.13,0.18,0.2,0.44,0.2,0.78V54.45z"/>
<polygon class="st0" points="31.28,51.5 28.96,51.5 28.96,48.92 31.62,48.92 31.62,47.4 27.37,47.4 27.37,57.01 28.96,57.01 
	28.96,53.01 31.28,53.01 "/>
<path class="st0" d="M35.08,47.5l-0.02-0.1h-1.32l-2.15,9.61h1.61L33.59,55h1.61l0.39,2.01h1.61L35.08,47.5z M34.9,53.48h-1.03
	l0.51-2.65L34.9,53.48z"/>
<path class="st0" d="M42.09,47.98c-0.42-0.44-0.97-0.66-1.63-0.66c-0.34,0-0.65,0.06-0.94,0.17c-0.28,0.12-0.53,0.28-0.73,0.48
	c-0.2,0.2-0.36,0.45-0.48,0.73c-0.11,0.28-0.17,0.58-0.17,0.9v5.15c0,0.45,0.07,0.82,0.22,1.11c0.14,0.29,0.33,0.53,0.55,0.72
	c0.22,0.19,0.48,0.32,0.76,0.39c0.27,0.07,0.54,0.11,0.81,0.11c0.31,0,0.61-0.06,0.89-0.19c0.27-0.12,0.51-0.3,0.72-0.51
	c0.2-0.21,0.36-0.46,0.48-0.73c0.12-0.27,0.18-0.57,0.18-0.87v-0.71h-1.6v0.59c0,0.17-0.02,0.3-0.07,0.41
	c-0.04,0.11-0.1,0.19-0.16,0.24c-0.07,0.06-0.15,0.1-0.24,0.13c-0.09,0.03-0.17,0.04-0.24,0.04c-0.26,0-0.44-0.07-0.53-0.22
	c-0.1-0.16-0.16-0.37-0.16-0.61v-4.78c0-0.29,0.05-0.54,0.15-0.72c0.09-0.16,0.27-0.24,0.55-0.24c0.21,0,0.38,0.08,0.5,0.24
	c0.13,0.17,0.2,0.37,0.2,0.6v0.58h1.6v-0.65c0-0.34-0.06-0.66-0.17-0.95C42.45,48.44,42.29,48.19,42.09,47.98"/>
<polygon class="st0" points="43.56,48.92 45.11,48.92 45.11,57.01 46.71,57.01 46.71,48.92 48.26,48.92 48.26,47.4 43.56,47.4 "/>
<path class="st0" d="M53,47.91c-0.23-0.19-0.49-0.34-0.77-0.44c-0.56-0.2-1.14-0.2-1.7,0c-0.28,0.1-0.53,0.25-0.76,0.44
	c-0.23,0.2-0.42,0.46-0.56,0.76c-0.14,0.31-0.21,0.66-0.21,1.05v4.94c0,0.41,0.07,0.77,0.21,1.07c0.14,0.3,0.33,0.54,0.56,0.74
	c0.22,0.2,0.48,0.36,0.76,0.46c0.28,0.1,0.57,0.15,0.85,0.15c0.28,0,0.57-0.05,0.85-0.15c0.28-0.1,0.54-0.26,0.77-0.46
	c0.22-0.19,0.41-0.44,0.54-0.74c0.14-0.3,0.21-0.66,0.21-1.07v-4.94c0-0.39-0.07-0.75-0.21-1.05C53.41,48.38,53.23,48.12,53,47.91
	 M52.16,49.73v4.94c0,0.29-0.07,0.49-0.22,0.62c-0.16,0.13-0.34,0.2-0.55,0.2c-0.22,0-0.4-0.07-0.55-0.2
	c-0.15-0.13-0.22-0.33-0.22-0.62v-4.94c0-0.29,0.07-0.49,0.22-0.62c0.16-0.13,0.34-0.2,0.55-0.2c0.22,0,0.4,0.07,0.55,0.2
	C52.09,49.24,52.16,49.45,52.16,49.73"/>
<path class="st0" d="M59.85,51.73c0.18-0.4,0.27-0.89,0.27-1.46c0-1.91-0.84-2.87-2.49-2.87h-2.28v9.61h1.6v-3.99h0.58l1.25,3.99
	h1.69l-1.47-4.34C59.39,52.43,59.68,52.11,59.85,51.73 M58.52,50.25c0,0.23-0.01,0.43-0.04,0.61c-0.02,0.16-0.07,0.3-0.13,0.4
	c-0.06,0.1-0.15,0.18-0.27,0.24c-0.12,0.06-0.29,0.09-0.51,0.09h-0.63v-2.66h0.57c0.42,0,0.7,0.1,0.84,0.31
	c0.07,0.12,0.12,0.26,0.14,0.42C58.5,49.81,58.52,50.02,58.52,50.25"/>
<polygon class="st0" points="64.39,47.4 63.4,50.83 62.41,47.4 60.71,47.4 62.6,52.95 62.6,57.01 64.2,57.01 64.2,52.95 66.09,47.4 
	"/>
</svg>
